<svg width="3850" height="976" xmlns="http://www.w3.org/2000/svg" xmlns:xlink="http://www.w3.org/1999/xlink" xml:space="preserve" overflow="hidden"><defs><filter id="fx0" x="-10%" y="-10%" width="120%" height="120%" filterUnits="userSpaceOnUse" primitiveUnits="userSpaceOnUse"><feComponentTransfer color-interpolation-filters="sRGB"><feFuncR type="discrete" tableValues="0 0"/><feFuncG type="discrete" tableValues="0 0"/><feFuncB type="discrete" tableValues="0 0"/><feFuncA type="linear" slope="0.4" intercept="0"/></feComponentTransfer><feGaussianBlur stdDeviation="5.55456 5.55456"/></filter><clipPath id="clip1"><rect x="180" y="148" width="2869" height="274"/></clipPath></defs><g transform="translate(-465 -428)"><path d="M1509.39 1232.79C1496.17 1232.79 1485.45 1243.52 1485.45 1256.75 1485.45 1269.98 1496.17 1280.71 1509.39 1280.71L1509.56 1280.71C1522.79 1280.71 1533.51 1269.98 1533.51 1256.75 1533.51 1243.52 1522.79 1232.79 1509.56 1232.79ZM3420.04 501.877C3406.82 501.877 3396.09 512.603 3396.09 525.836 3396.09 539.068 3406.82 549.794 3420.04 549.794L3420.21 549.794C3433.44 549.794 3444.16 539.068 3444.16 525.836 3444.16 512.603 3433.44 501.877 3420.21 501.877ZM473.5 431.5 4311.5 431.5 4311.5 1232.79 1674.38 1232.79C1661.15 1232.79 1650.43 1243.52 1650.43 1256.75 1650.43 1269.98 1661.15 1280.71 1674.38 1280.71L4311.5 1280.71 4311.5 1400.5 1439.07 1400.5 591.376 549.794 3292.31 549.794C3305.54 549.794 3316.26 539.068 3316.26 525.836 3316.26 512.603 3305.54 501.877 3292.31 501.877L543.628 501.877Z" stroke="#0E2841" stroke-width="6.875" stroke-miterlimit="8" fill="#0E2841" fill-rule="evenodd"/><g clip-path="url(#clip1)" filter="url(#fx0)" transform="translate(1096 632)"><g><path d="M143.296-50.1548 64.2284-50.1548 46.7704 0 2.66309 0 84.9529-221.332 122.708-221.332 205.206 0 160.902 0ZM75.602-86.2544 131.971-86.2544 103.759-169.698ZM263.05-35.8037 360.844-35.8037 360.844 0 219.553 0 219.553-221.332 263.05-221.332ZM511.94-96.167 423.466-96.167 423.466-35.8037 526.883-35.8037 526.883 0 379.969 0 379.969-221.332 525.847-221.332 525.847-185.232 423.466-185.232 423.466-131.675 511.94-131.675ZM636.012-221.332 679.361-221.332 679.361-67.3169C679.361-45.8951 672.616-28.827 659.126-16.1126 645.637-3.39821 627.921 2.95898 605.978 2.95898 582.699 2.95898 564.649-2.98634 551.827-14.877 539.006-26.7676 532.595-44.2476 532.595-67.3169L575.944-67.3169C575.944-54.6333 578.475-45.7171 583.536-40.5681 588.597-35.4192 596.078-32.8447 605.978-32.8447 615.166-32.8447 622.469-35.8665 627.886-41.9101 633.303-47.9537 636.012-56.4719 636.012-67.4648ZM834.233-50.1548 755.166-50.1548 737.708 0 693.601 0 775.89-221.332 813.645-221.332 896.143 0 851.839 0ZM766.539-86.2544 822.908-86.2544 794.696-169.698ZM1087.44 0 1045.2 0 953.987-152.832 953.987 0 910.49 0 910.49-221.332 952.63-221.332 1044.24-67.9087 1044.24-221.332 1087.44-221.332ZM1121.32 0 1121.32-221.332 1187.9-221.332C1207.46-221.332 1224.87-216.941 1240.14-208.159 1255.4-199.377 1267.21-186.949 1275.55-170.876 1283.89-154.802 1288.06-136.508 1288.06-115.992L1288.06-105.192C1288.06-84.3434 1283.86-65.9295 1275.47-49.9502 1267.07-33.9709 1255.1-21.6511 1239.57-12.9906 1224.03-4.33021 1206.26 0 1186.27 0ZM1164.82-185.232 1164.82-35.8037 1186.13-35.8037C1204.85-35.8037 1219.2-41.6331 1229.17-53.2918 1239.14-64.9505 1244.23-81.9053 1244.42-104.156L1244.42-116.14C1244.42-138.776 1239.59-155.951 1229.94-167.663 1220.29-179.376 1206.28-185.232 1187.9-185.232ZM1395.84-82.8516 1359.04-82.8516 1359.04 0 1315.54 0 1315.54-221.332 1394.25-221.332C1419.84-221.332 1439.73-215.479 1453.91-203.772 1468.09-192.066 1475.18-175.215 1475.18-153.22 1475.18-138.178 1471.54-125.565 1464.25-115.381 1456.97-105.196 1447.45-97.7859 1435.68-93.1502L1484.06-5.5481 1484.06 0 1439.04 0ZM1359.04-118.951 1394.4-118.951C1406.28-118.951 1415.47-121.856 1421.95-127.666 1428.44-133.476 1431.68-141.47 1431.68-151.648 1431.68-162.303 1428.68-170.518 1422.68-176.293 1416.68-182.068 1407.6-185.047 1395.43-185.232L1359.04-185.232ZM1678.58-105.044C1678.58-83.5281 1674.82-64.5679 1667.3-48.1632 1659.79-31.7586 1649-19.1371 1634.95-10.2987 1620.9-1.46023 1604.72 2.95898 1586.4 2.95898 1568.34 2.95898 1552.25-1.45329 1538.12-10.2778 1523.99-19.1024 1513.1-31.633 1505.43-47.8697 1497.77-64.1063 1493.89-82.7699 1493.79-103.86L1493.79-115.992C1493.79-137.469 1497.62-156.47 1505.27-172.994 1512.92-189.518 1523.77-202.199 1537.82-211.036 1551.87-219.873 1567.96-224.291 1586.1-224.291 1604.23-224.291 1620.34-219.913 1634.43-211.156 1648.51-202.399 1659.36-189.862 1666.99-173.543 1674.61-157.225 1678.48-138.386 1678.58-117.028ZM1635.08-116.288C1635.08-139.464 1630.79-157.094 1622.22-169.178 1613.65-181.262 1601.61-187.304 1586.11-187.304 1571.01-187.304 1559.13-181.3 1550.49-169.292 1541.85-157.284 1537.45-140.997 1537.29-120.431L1537.29-105.044C1537.29-81.9685 1541.65-64.3144 1550.38-52.0816 1559.11-39.8488 1571.12-33.7324 1586.4-33.7324 1601.95-33.7324 1613.95-39.7093 1622.4-51.6632 1630.85-63.617 1635.08-81.4106 1635.08-105.044ZM1950.78-30.0036C1942.21-18.8258 1930.79-10.5375 1916.53-5.13892 1902.27 0.259682 1886.17 2.95898 1868.23 2.95898 1849.58 2.95898 1833.07-1.27028 1818.7-9.72882 1804.33-18.1873 1793.26-30.2595 1785.5-45.9452 1777.73-61.6309 1773.69-79.9003 1773.39-100.753L1773.39-117.62C1773.39-150.89 1781.45-176.986 1797.57-195.908 1813.68-214.83 1836.15-224.291 1864.97-224.291 1889.68-224.291 1909.39-218.094 1924.1-205.701 1938.8-193.308 1947.65-174.501 1950.63-149.281L1908.27-149.281C1904.12-175.221 1889.94-188.191 1865.71-188.191 1850.01-188.191 1838.04-182.488 1829.79-171.08 1821.54-159.673 1817.29-143.6 1817.04-122.863L1817.04-103.349C1817.04-80.6716 1821.68-63.2514 1830.96-51.0887 1840.24-38.9261 1853.11-32.8447 1869.56-32.8447 1887.85-32.8447 1900.47-36.5797 1907.43-44.0496L1907.43-82.1118 1863.05-82.1118 1863.05-116.436 1950.78-116.436ZM2103.24-50.1548 2024.18-50.1548 2006.72 0 1962.61 0 2044.9-221.332 2082.66-221.332 2165.15 0 2120.85 0ZM2035.55-86.2544 2091.92-86.2544 2063.71-169.698ZM2259.8-82.8516 2223-82.8516 2223 0 2179.5 0 2179.5-221.332 2258.21-221.332C2283.8-221.332 2303.69-215.479 2317.87-203.772 2332.05-192.066 2339.14-175.215 2339.14-153.22 2339.14-138.178 2335.5-125.565 2328.21-115.381 2320.93-105.196 2311.4-97.7859 2299.64-93.1502L2348.01-5.5481 2348.01 0 2303 0ZM2223-118.951 2258.36-118.951C2270.24-118.951 2279.43-121.856 2285.91-127.666 2292.4-133.476 2295.64-141.47 2295.64-151.648 2295.64-162.303 2292.64-170.518 2286.64-176.293 2280.64-182.068 2271.56-185.047 2259.39-185.232L2223-185.232ZM2534.99-76.0459C2532.72-50.1101 2523.9-30.4587 2508.53-17.0916 2493.17-3.72454 2472.79 2.95898 2447.4 2.95898 2429.64 2.95898 2413.99-1.25526 2400.45-9.68374 2386.92-18.1122 2376.49-30.0483 2369.17-45.4921 2361.86-60.9358 2358.05-78.8138 2357.75-99.126L2357.75-119.247C2357.75-140.035 2361.45-158.39 2368.85-174.311 2376.25-190.231 2386.94-202.542 2400.91-211.241 2414.88-219.941 2430.97-224.291 2449.18-224.291 2473.72-224.291 2493.54-217.589 2508.64-204.186 2523.73-190.783 2532.52-170.854 2534.99-144.398L2491.94-144.398C2490.04-160.916 2485.74-172.345 2479.04-178.683 2472.34-185.022 2462.38-188.191 2449.18-188.191 2433.97-188.191 2422.24-182.574 2414-171.34 2405.75-160.106 2401.55-144.298 2401.39-123.917L2401.39-101.854C2401.39-79.0958 2405.32-61.9541 2413.16-50.4287 2421.01-38.9033 2432.42-33.1406 2447.4-33.1406 2461.36-33.1406 2471.75-36.1894 2478.58-42.2869 2485.41-48.3844 2489.87-59.6374 2491.97-76.0459ZM2603.77 0 2560.42 0 2560.42-221.332 2603.77-221.332ZM2763.24-50.1548 2684.18-50.1548 2666.72 0 2622.61 0 2704.9-221.332 2742.66-221.332 2825.15 0 2780.85 0ZM2695.55-86.2544 2751.92-86.2544 2723.71-169.698Z" fill="#FFFFFF" transform="matrix(1 0 0 1 199.929 396)"/></g></g><text fill="#FFFFFF" font-family="Roboto Medium,Roboto Medium_MSFontService,sans-serif" font-weight="700" font-size="303" transform="matrix(1 0 0 1 1287.08 1019)">ALEJANDRO GARCIA</text><text fill="#FFFFFF" font-family="Aptos,Aptos_MSFontService,sans-serif" font-weight="700" font-size="83" transform="matrix(1 0 0 1 1310.42 741)">ENGINEER</text></g></svg>
